<mxfile host="app.diagrams.net" modified="2023-03-26T16:12:49.728Z" agent="Mozilla/5.0 (Macintosh; Intel Mac OS X 10_15_7) AppleWebKit/537.36 (KHTML, like Gecko) Chrome/111.0.0.0 Safari/537.36" etag="Y5VIP0wjSqeol2Fofleb" version="21.1.1" type="device">
  <diagram name="第 1 页" id="3N_F_riCgI--BChNywTG">
    <mxGraphModel dx="1238" dy="771" grid="1" gridSize="10" guides="1" tooltips="1" connect="1" arrows="1" fold="1" page="1" pageScale="1" pageWidth="827" pageHeight="1169" math="0" shadow="0">
      <root>
        <mxCell id="0" />
        <mxCell id="1" parent="0" />
        <mxCell id="qJC43PIZEV9VnSjwpy_--1" value="Window" style="swimlane;" vertex="1" parent="1">
          <mxGeometry x="39" y="110" width="750" height="560" as="geometry" />
        </mxCell>
        <mxCell id="qJC43PIZEV9VnSjwpy_--2" value="Portal" style="swimlane;whiteSpace=wrap;html=1;" vertex="1" parent="qJC43PIZEV9VnSjwpy_--1">
          <mxGeometry x="31" y="50" width="389" height="480" as="geometry" />
        </mxCell>
        <mxCell id="qJC43PIZEV9VnSjwpy_--3" value="shareScope" style="rounded=0;whiteSpace=wrap;html=1;" vertex="1" parent="qJC43PIZEV9VnSjwpy_--2">
          <mxGeometry x="65" y="50" width="120" height="60" as="geometry" />
        </mxCell>
        <mxCell id="qJC43PIZEV9VnSjwpy_--4" value="remotes" style="rounded=0;whiteSpace=wrap;html=1;" vertex="1" parent="qJC43PIZEV9VnSjwpy_--2">
          <mxGeometry x="65" y="210" width="120" height="60" as="geometry" />
        </mxCell>
        <mxCell id="qJC43PIZEV9VnSjwpy_--5" value="exposes" style="rounded=0;whiteSpace=wrap;html=1;" vertex="1" parent="qJC43PIZEV9VnSjwpy_--2">
          <mxGeometry x="65" y="290" width="120" height="60" as="geometry" />
        </mxCell>
        <mxCell id="qJC43PIZEV9VnSjwpy_--6" value="remoteEntry" style="rounded=0;whiteSpace=wrap;html=1;" vertex="1" parent="qJC43PIZEV9VnSjwpy_--2">
          <mxGeometry x="65" y="130" width="120" height="60" as="geometry" />
        </mxCell>
      </root>
    </mxGraphModel>
  </diagram>
</mxfile>
